HIERARCHY
ROOT Hips
{
  OFFSET 49.4435 49.021 -5.08872
  CHANNELS 6 Xposition Yposition Zposition Zrotation Xrotation Yrotation
  JOINT spine
  {
    OFFSET 0 6.2448 0.359107
    CHANNELS 3 Zrotation Xrotation Yrotation
    JOINT spine1
    {
      OFFSET 0 9.06941 0
      CHANNELS 3 Zrotation Xrotation Yrotation
      JOINT spine2
      {
        OFFSET 0 8.69014 0
        CHANNELS 3 Zrotation Xrotation Yrotation
        JOINT Neck
        {
          OFFSET 0 22.3112 1.06372
          CHANNELS 3 Zrotation Xrotation Yrotation
          JOINT Head
          {
            OFFSET 0 6.74081 0
            CHANNELS 3 Zrotation Xrotation Yrotation
            End Site
            {
              OFFSET 0 16.3165 -5.38097
            }
          }
        }
        JOINT RightShoulder
        {
          OFFSET -3.65916 9.38468 -0.509514
          CHANNELS 3 Zrotation Xrotation Yrotation
          JOINT RightArm
          {
            OFFSET 0 12.3089 0
            CHANNELS 3 Zrotation Xrotation Yrotation
            JOINT RightArmRoll
            {
              OFFSET 0 6.21375 0
              CHANNELS 3 Zrotation Xrotation Yrotation
              JOINT RightForeArm
              {
                OFFSET 0 18.0985 0
                CHANNELS 3 Zrotation Xrotation Yrotation
                JOINT RightForeArmRoll
                {
                  OFFSET 0 6.9728 0
                  CHANNELS 3 Zrotation Xrotation Yrotation
                  JOINT RightHand
                  {
                    OFFSET 0 13.9929 0
                    CHANNELS 3 Zrotation Xrotation Yrotation
                    End Site
                    {
                      OFFSET 0 0 0
                    }
                  }
                }
              }
            }
          }
        }
        JOINT LeftShoulder
        {
          OFFSET 3.65916 9.38468 -0.509514
          CHANNELS 3 Zrotation Xrotation Yrotation
          JOINT LeftArm
          {
            OFFSET 0 12.3089 0
            CHANNELS 3 Zrotation Xrotation Yrotation
            JOINT LeftArmRoll
            {
              OFFSET 0 6.21375 0
              CHANNELS 3 Zrotation Xrotation Yrotation
              JOINT LeftForeArm
              {
                OFFSET 0 18.0985 0
                CHANNELS 3 Zrotation Xrotation Yrotation
                JOINT LeftForeArmRoll
                {
                  OFFSET 0 6.9728 0
                  CHANNELS 3 Zrotation Xrotation Yrotation
                  JOINT LeftHand
                  {
                    OFFSET 0 13.9929 0
                    CHANNELS 3 Zrotation Xrotation Yrotation
                    End Site
                    {
                      OFFSET 0 0 0
                    }
                  }
                }
              }
            }
          }
        }
      }
    }
  }
  JOINT RightUpLeg
  {
    OFFSET -5.53516 -1.015 -0.851454
    CHANNELS 3 Zrotation Xrotation Yrotation
    JOINT RightUpLegRoll
    {
      OFFSET 0 16.4075 0
      CHANNELS 3 Zrotation Xrotation Yrotation
      JOINT RightLeg
      {
        OFFSET 0 -20.3181 0
        CHANNELS 3 Zrotation Xrotation Yrotation
        JOINT RightLegRoll
        {
          OFFSET 0 20.3846 0
          CHANNELS 3 Zrotation Xrotation Yrotation
          JOINT RightFoot
          {
            OFFSET 0 16.9668 0
            CHANNELS 3 Zrotation Xrotation Yrotation
            JOINT RightToeBase
            {
              OFFSET 0 14.1834 0
              CHANNELS 3 Zrotation Xrotation Yrotation
              End Site
              {
                OFFSET 0.0060118 6.8689 -0.791745
              }
            }
          }
        }
      }
    }
  }
  JOINT LeftUpLeg
  {
    OFFSET 5.53516 -1.015 -0.851454
    CHANNELS 3 Zrotation Xrotation Yrotation
    JOINT LeftUpLegRoll
    {
      OFFSET 0 16.4076 0
      CHANNELS 3 Zrotation Xrotation Yrotation
      JOINT LeftLeg
      {
        OFFSET 0 20.3181 0
        CHANNELS 3 Zrotation Xrotation Yrotation
        JOINT LeftLegRoll
        {
          OFFSET 0 20.5731 0
          CHANNELS 3 Zrotation Xrotation Yrotation
          JOINT LeftFoot
          {
            OFFSET 0 16.7783 0
            CHANNELS 3 Zrotation Xrotation Yrotation
            JOINT LeftToeBase
            {
              OFFSET 0 14.1834 0
              CHANNELS 3 Zrotation Xrotation Yrotation
              End Site
              {
                OFFSET -0.0269423 6.8689 -0.791746
              }
            }
          }
        }
      }
    }
  }
}
MOTION
Frames: 8
Frame Time: 0.00208333
49.7322 84.3934 32.0454 -0.354552 2.29209 -2.98379 -0.207346 -1.96321 0.0415158 -0.398317 0.0761716 0.107231 -0.39969 1.72122 0.113917 5.02065 7.99238 -3.2976 -0.652213 7.7812 -1.90898 68.0609 -2.81945 -2.49631 107.268 15.3111 2.03612 5.76476e-015 9.96485e-007 -0 14.2636 16.011 -2.46228 -2.75955e-006 2.19306e-006 -2.99999 8.02886 -4.95145 0.697711 -61.311 -8.88713 5.55129 -111.974 12.4282 -13.8582 -3.57812e-015 -1.59028e-015 -6.36111e-015 -2.35468 12.0775 0.734342 3.46826e-006 -9.1091e-007 3 -8.03 -4.95137 -0.697642 179.828 8.01778 -1.54402 180 7.0158e-015 179.077 179.18 9.911 179.257 -2.45033e-006 -1.15118e-006 0.239082 -19.3195 69.9 21.1931 8.13649 25.2327 -3.48774 -179.322 1.87955 -1.04464 4.54188e-006 -4.6773e-006 -1.09588 -1.79141 -9.31225 0.563933 -1.35107e-006 3.6246e-006 -0.220993 22.0949 71.0555 -22.5291 -8.27162 27.117 3.54519 
49.7282 84.3969 32.0444 -0.357971 2.29458 -2.98966 -0.207755 -1.96113 0.0406146 -0.400188 0.0803424 0.104511 -0.401533 1.72539 0.111228 5.04232 8.04053 -3.31639 -0.658977 7.81424 -1.9196 68.0904 -2.81121 -2.4946 107.241 15.2779 2.17935 -5.96354e-015 9.96485e-007 -0 14.1787 15.9166 -2.44205 -2.75955e-006 2.19306e-006 -2.99999 8.02886 -4.95145 0.697711 -61.2899 -8.89567 5.55619 -111.981 12.3673 -13.9054 3.57812e-015 3.18055e-015 -9.54166e-015 -2.33192 12.0464 0.731423 3.46826e-006 -9.1091e-007 3 -8.03 -4.95137 -0.697642 179.812 7.99934 -1.512 180 7.0158e-015 179.076 179.143 9.87948 179.263 -2.45033e-006 -1.15118e-006 0.235377 -19.3201 69.8761 21.172 8.13649 25.2327 -3.48774 -179.322 1.88682 -1.04234 4.54188e-006 -4.6773e-006 -1.09588 -1.79141 -9.30905 0.564115 -1.35107e-006 3.6246e-006 -0.221 22.1032 71.0583 -22.5336 -8.27078 27.1057 3.54493 
49.7401 84.3989 32.0316 -0.361354 2.29718 -2.99568 -0.208236 -1.95914 0.0396851 -0.402213 0.0843161 0.101702 -0.40353 1.72936 0.108453 5.0652 8.08691 -3.33463 -0.667797 7.85149 -1.92943 68.122 -2.80234 -2.49274 107.211 15.2448 2.3253 1.43125e-014 9.96485e-007 3.18055e-015 14.0922 15.8252 -2.42215 -2.75955e-006 2.19306e-006 -2.99999 8.02886 -4.95145 0.697711 -61.2682 -8.90469 5.56138 -111.989 12.3059 -13.9533 -2.3059e-014 -7.95139e-015 -1.90833e-014 -2.3089 12.0144 0.728462 3.46826e-006 -9.1091e-007 3 -8.03 -4.95137 -0.697642 179.795 7.97961 -1.47866 180 7.01579e-015 179.075 179.104 9.84673 179.269 -2.45033e-006 -1.15118e-006 0.231549 -19.3212 69.8516 21.1504 8.13649 25.2327 -3.48774 -179.322 1.89436 -1.04002 4.54188e-006 -4.6773e-006 -1.09588 -1.79139 -9.30647 0.564325 -1.35107e-006 3.6246e-006 -0.221011 22.112 71.0616 -22.5388 -8.26994 27.0944 3.54468 
49.7309 84.4095 32.0234 -0.364711 2.29984 -3.00181 -0.208766 -1.95723 0.0387356 -0.404347 0.0881518 0.0988305 -0.405635 1.7332 0.105618 5.08894 8.13207 -3.35247 -0.678051 7.89167 -1.93869 68.1551 -2.79302 -2.49078 107.181 15.2118 2.47312 3.06128e-014 9.96485e-007 4.77083e-015 14.0047 15.7361 -2.40248 -2.75955e-006 2.19306e-006 -2.99999 8.02886 -4.95145 0.697711 -61.2461 -8.91405 5.56677 -111.995 12.2442 -14.0016 -6.75868e-015 1.59028e-015 -3.18055e-015 -2.28571 11.9818 0.725471 3.46826e-006 -9.1091e-007 3 -8.03 -4.95137 -0.697642 179.778 7.95897 -1.44438 180 7.01579e-015 179.074 179.064 9.81316 179.275 -2.45033e-006 -1.15118e-006 0.227635 -19.3228 69.8267 21.1285 8.13649 25.2327 -3.48774 -179.323 1.90208 -1.03768 4.54188e-006 -4.6773e-006 -1.09588 -1.79134 -9.30432 0.564553 -1.35107e-006 3.6246e-006 -0.221025 22.1212 71.0653 -22.5445 -8.26909 27.0829 3.54443 
49.7389 84.4088 32.0123 -0.368054 2.30255 -3.008 -0.209325 -1.95535 0.0377747 -0.406542 0.0919086 0.0959236 -0.407801 1.73696 0.102748 5.11317 8.17651 -3.37009 -0.68912 7.93352 -1.94763 68.189 -2.78344 -2.48875 107.149 15.1787 2.622 -7.95139e-015 9.96485e-007 -0 13.9167 15.6481 -2.38295 -2.75955e-006 2.19306e-006 -2.99999 8.02886 -4.95145 0.697711 -61.2239 -8.9236 5.57228 -112.002 12.1823 -14.0503 -1.78906e-014 -3.18055e-015 -1.27222e-014 -2.26241 11.9487 0.722464 3.46826e-006 -9.1091e-007 3 -8.03 -4.95137 -0.697642 179.76 7.93782 -1.40958 180 7.01579e-015 179.073 179.024 9.77914 179.281 -2.45033e-006 -1.15118e-006 0.22367 -19.3247 69.8016 21.1065 8.13649 25.2327 -3.48774 -179.323 1.90992 -1.03534 4.54188e-006 -4.6773e-006 -1.09588 -1.79129 -9.30242 0.564792 -1.35107e-006 3.6246e-006 -0.22104 22.1307 71.0692 -22.5504 -8.26824 27.0715 3.54419 
49.7475 84.3956 31.9953 -0.371392 2.30526 -3.01421 -0.209891 -1.95349 0.036811 -0.408753 0.0956458 0.0930078 -0.409981 1.74069 0.0998691 5.13755 8.22079 -3.38766 -0.700382 7.9758 -1.95649 68.2231 -2.7738 -2.48671 107.117 15.1455 2.77112 3.97569e-015 9.96485e-007 3.18055e-015 13.8285 15.5605 -2.36347 -2.75955e-006 2.19306e-006 -2.99999 8.02886 -4.95145 0.697711 -61.2015 -8.93321 5.57781 -112.009 12.1204 -14.099 2.78299e-015 6.36111e-015 -0 -2.23909 11.9155 0.719454 3.46826e-006 -9.1091e-007 3 -8.03 -4.95137 -0.697642 179.743 7.91653 -1.37465 180 7.01579e-015 179.072 178.983 9.74499 179.287 -2.45033e-006 -1.15118e-006 0.219694 -19.3267 69.7764 21.0845 8.13649 25.2327 -3.48774 -179.323 1.91777 -1.03299 4.54188e-006 -4.6773e-006 -1.09588 -1.79123 -9.30058 0.565033 -1.35107e-006 3.6246e-006 -0.221056 22.1401 71.0731 -22.5563 -8.26739 27.06 3.54394 
49.7478 84.4015 31.9859 -0.374737 2.30796 -3.02039 -0.210442 -1.9516 0.035853 -0.410932 0.0994224 0.0901098 -0.412131 1.74447 0.0970077 5.16172 8.26541 -3.40536 -0.711218 8.01724 -1.96551 68.2568 -2.76429 -2.4847 107.086 15.1123 2.91963 -1.09332e-014 9.96485e-007 -1.59028e-015 13.7408 15.4722 -2.34396 -2.75955e-006 2.19306e-006 -2.99999 8.02886 -4.95145 0.697711 -61.1793 -8.94271 5.58329 -112.016 12.0587 -14.1475 -3.97569e-016 1.59028e-015 -6.36111e-015 -2.21582 11.8825 0.716453 3.46826e-006 -9.1091e-007 3 -8.03 -4.95137 -0.697642 179.725 7.89549 -1.33999 180 7.01579e-015 179.071 178.943 9.71108 179.293 -2.45033e-006 -1.15118e-006 0.215742 -19.3287 69.7513 21.0626 8.13649 25.2327 -3.48774 -179.323 1.92558 -1.03064 4.54188e-006 -4.6773e-006 -1.09588 -1.79117 -9.29862 0.56527 -1.35107e-006 3.6246e-006 -0.22107 22.1495 71.0769 -22.5622 -8.26654 27.0485 3.54369 
49.7557 84.4031 31.9726 -0.378099 2.31061 -3.02649 -0.210958 -1.94967 0.0349092 -0.413033 0.103298 0.0872563 -0.414203 1.74834 0.0941894 5.18533 8.3109 -3.42334 -0.721006 8.05658 -1.97495 68.2894 -2.7551 -2.48277 107.057 15.0788 3.06672 2.16675e-014 9.96485e-007 4.77083e-015 13.6539 15.3824 -2.32432 -2.75955e-006 2.19306e-006 -2.99999 8.02886 -4.95145 0.697711 -61.1574 -8.95197 5.58862 -112.024 11.9971 -14.1957 -2.74323e-014 -1.43125e-014 -9.54166e-015 -2.19269 11.8501 0.713475 3.46826e-006 -9.1091e-007 3 -8.03 -4.95137 -0.697642 179.708 7.8751 -1.30599 180 7.01578e-015 179.069 178.903 9.67774 179.3 -2.45033e-006 -1.15118e-006 0.211852 -19.3304 69.7265 21.0411 8.13649 25.2327 -3.48774 -179.323 1.93325 -1.02831 4.54188e-006 -4.6773e-006 -1.09588 -1.79114 -9.29635 0.565493 -1.35107e-006 3.6246e-006 -0.221083 22.1587 71.0805 -22.5677 -8.26569 27.0371 3.54344 
